<?xml version="1.0" encoding="UTF-8" standalone="no"?>
<!DOCTYPE svg PUBLIC "-//W3C//DTD SVG 1.1//EN"
 "http://www.w3.org/Graphics/SVG/1.1/DTD/svg11.dtd">
<!-- Generated by graphviz version 2.40.1 (20161225.0304)
 -->
<!-- Title: dependencies Pages: 1 -->
<svg width="850pt" height="284pt"
 viewBox="0.00 0.00 850.00 284.00" xmlns="http://www.w3.org/2000/svg" xmlns:xlink="http://www.w3.org/1999/xlink">
<g id="graph0" class="graph" transform="scale(1 1) rotate(0) translate(4 280)">
<title>dependencies</title>
<polygon fill="#ffffff" stroke="transparent" points="-4,4 -4,-280 846,-280 846,4 -4,4"/>
<text text-anchor="start" x="400.0091" y="-42.4" font-family="sans-serif" font-weight="bold" font-size="14.00" fill="#000000">Legend</text>
<polygon fill="#ffffb3" stroke="transparent" points="187,-10 187,-30 207,-30 207,-10 187,-10"/>
<text text-anchor="start" x="210.629" y="-15.4" font-family="sans-serif" font-size="14.00" fill="#000000"> &#160;Declarations</text>
<polygon fill="#8dd3c7" stroke="transparent" points="300,-10 300,-30 320,-30 320,-10 300,-10"/>
<text text-anchor="start" x="323.7251" y="-15.4" font-family="sans-serif" font-size="14.00" fill="#000000"> &#160;Module</text>
<polygon fill="#80b1d3" stroke="transparent" points="386,-10 386,-30 406,-30 406,-10 386,-10"/>
<text text-anchor="start" x="409.7812" y="-15.4" font-family="sans-serif" font-size="14.00" fill="#000000"> &#160;Bootstrap</text>
<polygon fill="#fdb462" stroke="transparent" points="483,-10 483,-30 503,-30 503,-10 483,-10"/>
<text text-anchor="start" x="506.6732" y="-15.4" font-family="sans-serif" font-size="14.00" fill="#000000"> &#160;Providers</text>
<polygon fill="#fb8072" stroke="transparent" points="579,-10 579,-30 599,-30 599,-10 579,-10"/>
<text text-anchor="start" x="602.7258" y="-15.4" font-family="sans-serif" font-size="14.00" fill="#000000"> &#160;Exports</text>
<g id="clust1" class="cluster">
<title>cluster_SharedModule</title>
<polygon fill="none" stroke="#000000" stroke-dasharray="1,5" points="8,-70 8,-268 834,-268 834,-70 8,-70"/>
</g>
<g id="clust2" class="cluster">
<title>cluster_SharedModule_declarations</title>
<polygon fill="none" stroke="#000000" points="416,-78 416,-130 826,-130 826,-78 416,-78"/>
</g>
<g id="clust6" class="cluster">
<title>cluster_SharedModule_imports</title>
<polygon fill="none" stroke="#000000" points="16,-78 16,-130 408,-130 408,-78 16,-78"/>
</g>
<g id="clust7" class="cluster">
<title>cluster_SharedModule_exports</title>
<polygon fill="none" stroke="#000000" points="83,-208 83,-260 758,-260 758,-208 83,-208"/>
</g>
<!-- BannerComponent -->
<g id="node1" class="node">
<title>BannerComponent</title>
<polygon fill="#ffffb3" stroke="#000000" points="817.759,-122 696.241,-122 696.241,-86 817.759,-86 817.759,-122"/>
<text text-anchor="middle" x="757" y="-99.8" font-family="Times,serif" font-size="14.00" fill="#000000">BannerComponent</text>
</g>
<!-- SharedModule -->
<g id="node4" class="node">
<title>SharedModule</title>
<polygon fill="#8dd3c7" stroke="#000000" points="465.4231,-187 462.4231,-191 441.4231,-191 438.4231,-187 366.5769,-187 366.5769,-151 465.4231,-151 465.4231,-187"/>
<text text-anchor="middle" x="416" y="-164.8" font-family="Times,serif" font-size="14.00" fill="#000000">SharedModule</text>
</g>
<!-- BannerComponent&#45;&gt;SharedModule -->
<g id="edge1" class="edge">
<title>BannerComponent&#45;&gt;SharedModule</title>
<path fill="none" stroke="#000000" d="M722.875,-122.2667C722.875,-140.5552 722.875,-166 722.875,-166 722.875,-166 475.3048,-166 475.3048,-166"/>
<polygon fill="#000000" stroke="#000000" points="475.3048,-162.5001 465.3048,-166 475.3047,-169.5001 475.3048,-162.5001"/>
</g>
<!-- FooterComponent -->
<g id="node2" class="node">
<title>FooterComponent</title>
<polygon fill="#ffffb3" stroke="#000000" points="677.8809,-122 560.1191,-122 560.1191,-86 677.8809,-86 677.8809,-122"/>
<text text-anchor="middle" x="619" y="-99.8" font-family="Times,serif" font-size="14.00" fill="#000000">FooterComponent</text>
</g>
<!-- FooterComponent&#45;&gt;SharedModule -->
<g id="edge2" class="edge">
<title>FooterComponent&#45;&gt;SharedModule</title>
<path fill="none" stroke="#000000" d="M583.375,-122.0091C583.375,-138.0494 583.375,-159 583.375,-159 583.375,-159 475.3127,-159 475.3127,-159"/>
<polygon fill="#000000" stroke="#000000" points="475.3128,-155.5001 465.3127,-159 475.3127,-162.5001 475.3128,-155.5001"/>
</g>
<!-- ModalComponent -->
<g id="node3" class="node">
<title>ModalComponent</title>
<polygon fill="#ffffb3" stroke="#000000" points="541.8823,-122 424.1177,-122 424.1177,-86 541.8823,-86 541.8823,-122"/>
<text text-anchor="middle" x="483" y="-99.8" font-family="Times,serif" font-size="14.00" fill="#000000">ModalComponent</text>
</g>
<!-- ModalComponent&#45;&gt;SharedModule -->
<g id="edge3" class="edge">
<title>ModalComponent&#45;&gt;SharedModule</title>
<path fill="none" stroke="#000000" d="M444.635,-122.1061C444.635,-122.1061 444.635,-140.991 444.635,-140.991"/>
<polygon fill="#000000" stroke="#000000" points="441.1351,-140.9909 444.635,-150.991 448.1351,-140.991 441.1351,-140.9909"/>
</g>
<!-- BannerComponent  -->
<g id="node8" class="node">
<title>BannerComponent </title>
<polygon fill="#fb8072" stroke="#000000" points="749.7591,-252 624.2409,-252 624.2409,-216 749.7591,-216 749.7591,-252"/>
<text text-anchor="middle" x="687" y="-229.8" font-family="Times,serif" font-size="14.00" fill="#000000">BannerComponent </text>
</g>
<!-- SharedModule&#45;&gt;BannerComponent  -->
<g id="edge7" class="edge">
<title>SharedModule&#45;&gt;BannerComponent </title>
<path fill="none" stroke="#000000" stroke-dasharray="5,2" d="M465.2963,-173C534.2514,-173 651.1555,-173 651.1555,-173 651.1555,-173 651.1555,-205.698 651.1555,-205.698"/>
<polygon fill="#000000" stroke="#000000" points="647.6556,-205.698 651.1555,-215.698 654.6556,-205.698 647.6556,-205.698"/>
</g>
<!-- FooterComponent  -->
<g id="node9" class="node">
<title>FooterComponent </title>
<polygon fill="#fb8072" stroke="#000000" points="606.8814,-252 485.1186,-252 485.1186,-216 606.8814,-216 606.8814,-252"/>
<text text-anchor="middle" x="546" y="-229.8" font-family="Times,serif" font-size="14.00" fill="#000000">FooterComponent </text>
</g>
<!-- SharedModule&#45;&gt;FooterComponent  -->
<g id="edge8" class="edge">
<title>SharedModule&#45;&gt;FooterComponent </title>
<path fill="none" stroke="#000000" stroke-dasharray="5,2" d="M465.3847,-180C489.5989,-180 513.6254,-180 513.6254,-180 513.6254,-180 513.6254,-205.7181 513.6254,-205.7181"/>
<polygon fill="#000000" stroke="#000000" points="510.1254,-205.718 513.6254,-215.7181 517.1254,-205.7181 510.1254,-205.718"/>
</g>
<!-- HeaderModule  -->
<g id="node10" class="node">
<title>HeaderModule </title>
<polygon fill="#fb8072" stroke="#000000" points="467.9618,-252 364.0382,-252 364.0382,-216 467.9618,-216 467.9618,-252"/>
<text text-anchor="middle" x="416" y="-229.8" font-family="Times,serif" font-size="14.00" fill="#000000">HeaderModule </text>
</g>
<!-- SharedModule&#45;&gt;HeaderModule  -->
<g id="edge9" class="edge">
<title>SharedModule&#45;&gt;HeaderModule </title>
<path fill="none" stroke="#000000" stroke-dasharray="5,2" d="M416,-187.1061C416,-187.1061 416,-205.991 416,-205.991"/>
<polygon fill="#000000" stroke="#000000" points="412.5001,-205.9909 416,-215.991 419.5001,-205.991 412.5001,-205.9909"/>
</g>
<!-- ModalComponent  -->
<g id="node11" class="node">
<title>ModalComponent </title>
<polygon fill="#fb8072" stroke="#000000" points="346.8828,-252 225.1172,-252 225.1172,-216 346.8828,-216 346.8828,-252"/>
<text text-anchor="middle" x="286" y="-229.8" font-family="Times,serif" font-size="14.00" fill="#000000">ModalComponent </text>
</g>
<!-- SharedModule&#45;&gt;ModalComponent  -->
<g id="edge10" class="edge">
<title>SharedModule&#45;&gt;ModalComponent </title>
<path fill="none" stroke="#000000" stroke-dasharray="5,2" d="M366.6419,-180C338.6458,-180 309.152,-180 309.152,-180 309.152,-180 309.152,-205.7181 309.152,-205.7181"/>
<polygon fill="#000000" stroke="#000000" points="305.6521,-205.718 309.152,-215.7181 312.6521,-205.7181 305.6521,-205.718"/>
</g>
<!-- TrianglesModule  -->
<g id="node12" class="node">
<title>TrianglesModule </title>
<polygon fill="#fb8072" stroke="#000000" points="206.918,-252 91.082,-252 91.082,-216 206.918,-216 206.918,-252"/>
<text text-anchor="middle" x="149" y="-229.8" font-family="Times,serif" font-size="14.00" fill="#000000">TrianglesModule </text>
</g>
<!-- SharedModule&#45;&gt;TrianglesModule  -->
<g id="edge11" class="edge">
<title>SharedModule&#45;&gt;TrianglesModule </title>
<path fill="none" stroke="#000000" stroke-dasharray="5,2" d="M366.6292,-173C297.57,-173 180.4893,-173 180.4893,-173 180.4893,-173 180.4893,-205.698 180.4893,-205.698"/>
<polygon fill="#000000" stroke="#000000" points="176.9894,-205.698 180.4893,-215.698 183.9894,-205.698 176.9894,-205.698"/>
</g>
<!-- AppRoutingModule -->
<g id="node5" class="node">
<title>AppRoutingModule</title>
<polygon fill="#8dd3c7" stroke="#000000" points="400.2744,-122 397.2744,-126 376.2744,-126 373.2744,-122 271.7256,-122 271.7256,-86 400.2744,-86 400.2744,-122"/>
<text text-anchor="middle" x="336" y="-99.8" font-family="Times,serif" font-size="14.00" fill="#000000">AppRoutingModule</text>
</g>
<!-- AppRoutingModule&#45;&gt;SharedModule -->
<g id="edge4" class="edge">
<title>AppRoutingModule&#45;&gt;SharedModule</title>
<path fill="none" stroke="#000000" d="M383.588,-122.1061C383.588,-122.1061 383.588,-140.991 383.588,-140.991"/>
<polygon fill="#000000" stroke="#000000" points="380.0881,-140.9909 383.588,-150.991 387.0881,-140.991 380.0881,-140.9909"/>
</g>
<!-- HeaderModule -->
<g id="node6" class="node">
<title>HeaderModule</title>
<polygon fill="#8dd3c7" stroke="#000000" points="253.9608,-122 250.9608,-126 229.9608,-126 226.9608,-122 154.0392,-122 154.0392,-86 253.9608,-86 253.9608,-122"/>
<text text-anchor="middle" x="204" y="-99.8" font-family="Times,serif" font-size="14.00" fill="#000000">HeaderModule</text>
</g>
<!-- HeaderModule&#45;&gt;SharedModule -->
<g id="edge5" class="edge">
<title>HeaderModule&#45;&gt;SharedModule</title>
<path fill="none" stroke="#000000" d="M239.6447,-122.0091C239.6447,-138.0494 239.6447,-159 239.6447,-159 239.6447,-159 356.4059,-159 356.4059,-159"/>
<polygon fill="#000000" stroke="#000000" points="356.4059,-162.5001 366.4059,-159 356.4059,-155.5001 356.4059,-162.5001"/>
</g>
<!-- TrianglesModule -->
<g id="node7" class="node">
<title>TrianglesModule</title>
<polygon fill="#8dd3c7" stroke="#000000" points="136.4188,-122 133.4188,-126 112.4188,-126 109.4188,-122 23.5812,-122 23.5812,-86 136.4188,-86 136.4188,-122"/>
<text text-anchor="middle" x="80" y="-99.8" font-family="Times,serif" font-size="14.00" fill="#000000">TrianglesModule</text>
</g>
<!-- TrianglesModule&#45;&gt;SharedModule -->
<g id="edge6" class="edge">
<title>TrianglesModule&#45;&gt;SharedModule</title>
<path fill="none" stroke="#000000" d="M113.625,-122.2667C113.625,-140.5552 113.625,-166 113.625,-166 113.625,-166 356.7453,-166 356.7453,-166"/>
<polygon fill="#000000" stroke="#000000" points="356.7453,-169.5001 366.7453,-166 356.7452,-162.5001 356.7453,-169.5001"/>
</g>
</g>
</svg>
