<?xml version="1.0" encoding="UTF-8" standalone="no"?>
<!DOCTYPE svg PUBLIC "-//W3C//DTD SVG 1.1//EN"
 "http://www.w3.org/Graphics/SVG/1.1/DTD/svg11.dtd">
<!-- Generated by graphviz version 2.40.1 (20161225.0304)
 -->
<!-- Title: dependencies Pages: 1 -->
<svg width="504pt" height="284pt"
 viewBox="0.00 0.00 504.00 284.00" xmlns="http://www.w3.org/2000/svg" xmlns:xlink="http://www.w3.org/1999/xlink">
<g id="graph0" class="graph" transform="scale(1 1) rotate(0) translate(4 280)">
<title>dependencies</title>
<polygon fill="#ffffff" stroke="transparent" points="-4,4 -4,-280 500,-280 500,4 -4,4"/>
<text text-anchor="start" x="227.0091" y="-42.4" font-family="sans-serif" font-weight="bold" font-size="14.00" fill="#000000">Legend</text>
<polygon fill="#ffffb3" stroke="transparent" points="14,-10 14,-30 34,-30 34,-10 14,-10"/>
<text text-anchor="start" x="37.629" y="-15.4" font-family="sans-serif" font-size="14.00" fill="#000000"> &#160;Declarations</text>
<polygon fill="#8dd3c7" stroke="transparent" points="127,-10 127,-30 147,-30 147,-10 127,-10"/>
<text text-anchor="start" x="150.7251" y="-15.4" font-family="sans-serif" font-size="14.00" fill="#000000"> &#160;Module</text>
<polygon fill="#80b1d3" stroke="transparent" points="213,-10 213,-30 233,-30 233,-10 213,-10"/>
<text text-anchor="start" x="236.7812" y="-15.4" font-family="sans-serif" font-size="14.00" fill="#000000"> &#160;Bootstrap</text>
<polygon fill="#fdb462" stroke="transparent" points="310,-10 310,-30 330,-30 330,-10 310,-10"/>
<text text-anchor="start" x="333.6732" y="-15.4" font-family="sans-serif" font-size="14.00" fill="#000000"> &#160;Providers</text>
<polygon fill="#fb8072" stroke="transparent" points="406,-10 406,-30 426,-30 426,-10 406,-10"/>
<text text-anchor="start" x="429.7258" y="-15.4" font-family="sans-serif" font-size="14.00" fill="#000000"> &#160;Exports</text>
<g id="clust1" class="cluster">
<title>cluster_PipeModule</title>
<polygon fill="none" stroke="#000000" stroke-dasharray="1,5" points="16,-70 16,-268 480,-268 480,-70 16,-70"/>
</g>
<g id="clust2" class="cluster">
<title>cluster_PipeModule_declarations</title>
<polygon fill="none" stroke="#000000" points="32,-78 32,-130 466,-130 466,-78 32,-78"/>
</g>
<g id="clust8" class="cluster">
<title>cluster_PipeModule_exports</title>
<polygon fill="none" stroke="#000000" points="24,-208 24,-260 472,-260 472,-208 24,-208"/>
</g>
<!-- LengthPipe -->
<g id="node1" class="node">
<title>LengthPipe</title>
<polygon fill="#ffffb3" stroke="#000000" points="458.0469,-122 377.9531,-122 377.9531,-86 458.0469,-86 458.0469,-122"/>
<text text-anchor="middle" x="418" y="-99.8" font-family="Times,serif" font-size="14.00" fill="#000000">LengthPipe</text>
</g>
<!-- PipeModule -->
<g id="node5" class="node">
<title>PipeModule</title>
<polygon fill="#8dd3c7" stroke="#000000" points="238.4387,-187 235.4387,-191 214.4387,-191 211.4387,-187 153.5613,-187 153.5613,-151 238.4387,-151 238.4387,-187"/>
<text text-anchor="middle" x="196" y="-164.8" font-family="Times,serif" font-size="14.00" fill="#000000">PipeModule</text>
</g>
<!-- LengthPipe&#45;&gt;PipeModule -->
<g id="edge1" class="edge">
<title>LengthPipe&#45;&gt;PipeModule</title>
<path fill="none" stroke="#000000" d="M432.1743,-122.2667C432.1743,-140.5552 432.1743,-166 432.1743,-166 432.1743,-166 248.2232,-166 248.2232,-166"/>
<polygon fill="#000000" stroke="#000000" points="248.2233,-162.5001 238.2232,-166 248.2232,-169.5001 248.2233,-162.5001"/>
</g>
<!-- ReversePipe -->
<g id="node2" class="node">
<title>ReversePipe</title>
<polygon fill="#ffffb3" stroke="#000000" points="359.9734,-122 274.0266,-122 274.0266,-86 359.9734,-86 359.9734,-122"/>
<text text-anchor="middle" x="317" y="-99.8" font-family="Times,serif" font-size="14.00" fill="#000000">ReversePipe</text>
</g>
<!-- ReversePipe&#45;&gt;PipeModule -->
<g id="edge2" class="edge">
<title>ReversePipe&#45;&gt;PipeModule</title>
<path fill="none" stroke="#000000" d="M331.3289,-122.0091C331.3289,-138.0494 331.3289,-159 331.3289,-159 331.3289,-159 248.4476,-159 248.4476,-159"/>
<polygon fill="#000000" stroke="#000000" points="248.4476,-155.5001 238.4476,-159 248.4476,-162.5001 248.4476,-155.5001"/>
</g>
<!-- TextCapitalizePipe -->
<g id="node3" class="node">
<title>TextCapitalizePipe</title>
<polygon fill="#ffffb3" stroke="#000000" points="255.8034,-122 132.1966,-122 132.1966,-86 255.8034,-86 255.8034,-122"/>
<text text-anchor="middle" x="194" y="-99.8" font-family="Times,serif" font-size="14.00" fill="#000000">TextCapitalizePipe</text>
</g>
<!-- TextCapitalizePipe&#45;&gt;PipeModule -->
<g id="edge3" class="edge">
<title>TextCapitalizePipe&#45;&gt;PipeModule</title>
<path fill="none" stroke="#000000" d="M196,-122.1061C196,-122.1061 196,-140.991 196,-140.991"/>
<polygon fill="#000000" stroke="#000000" points="192.5001,-140.9909 196,-150.991 199.5001,-140.991 192.5001,-140.9909"/>
</g>
<!-- WwwPipe -->
<g id="node4" class="node">
<title>WwwPipe</title>
<polygon fill="#ffffb3" stroke="#000000" points="114.3163,-122 39.6837,-122 39.6837,-86 114.3163,-86 114.3163,-122"/>
<text text-anchor="middle" x="77" y="-99.8" font-family="Times,serif" font-size="14.00" fill="#000000">WwwPipe</text>
</g>
<!-- WwwPipe&#45;&gt;PipeModule -->
<g id="edge4" class="edge">
<title>WwwPipe&#45;&gt;PipeModule</title>
<path fill="none" stroke="#000000" d="M86.5526,-122.0225C86.5526,-139.3734 86.5526,-163 86.5526,-163 86.5526,-163 143.6848,-163 143.6848,-163"/>
<polygon fill="#000000" stroke="#000000" points="143.6848,-166.5001 153.6848,-163 143.6847,-159.5001 143.6848,-166.5001"/>
</g>
<!-- LengthPipe  -->
<g id="node6" class="node">
<title>LengthPipe </title>
<polygon fill="#fb8072" stroke="#000000" points="464.0456,-252 379.9544,-252 379.9544,-216 464.0456,-216 464.0456,-252"/>
<text text-anchor="middle" x="422" y="-229.8" font-family="Times,serif" font-size="14.00" fill="#000000">LengthPipe </text>
</g>
<!-- PipeModule&#45;&gt;LengthPipe  -->
<g id="edge5" class="edge">
<title>PipeModule&#45;&gt;LengthPipe </title>
<path fill="none" stroke="#000000" stroke-dasharray="5,2" d="M238.2593,-173C299.6048,-173 406.0757,-173 406.0757,-173 406.0757,-173 406.0757,-205.698 406.0757,-205.698"/>
<polygon fill="#000000" stroke="#000000" points="402.5758,-205.698 406.0757,-215.698 409.5758,-205.698 402.5758,-205.698"/>
</g>
<!-- ReversePipe  -->
<g id="node7" class="node">
<title>ReversePipe </title>
<polygon fill="#fb8072" stroke="#000000" points="361.9747,-252 272.0253,-252 272.0253,-216 361.9747,-216 361.9747,-252"/>
<text text-anchor="middle" x="317" y="-229.8" font-family="Times,serif" font-size="14.00" fill="#000000">ReversePipe </text>
</g>
<!-- PipeModule&#45;&gt;ReversePipe  -->
<g id="edge6" class="edge">
<title>PipeModule&#45;&gt;ReversePipe </title>
<path fill="none" stroke="#000000" stroke-dasharray="5,2" d="M238.4657,-180C268.2129,-180 302.6711,-180 302.6711,-180 302.6711,-180 302.6711,-205.7181 302.6711,-205.7181"/>
<polygon fill="#000000" stroke="#000000" points="299.1712,-205.718 302.6711,-215.7181 306.1712,-205.7181 299.1712,-205.718"/>
</g>
<!-- TextCapitalizePipe  -->
<g id="node8" class="node">
<title>TextCapitalizePipe </title>
<polygon fill="#fb8072" stroke="#000000" points="254.3032,-252 127.6968,-252 127.6968,-216 254.3032,-216 254.3032,-252"/>
<text text-anchor="middle" x="191" y="-229.8" font-family="Times,serif" font-size="14.00" fill="#000000">TextCapitalizePipe </text>
</g>
<!-- PipeModule&#45;&gt;TextCapitalizePipe  -->
<g id="edge7" class="edge">
<title>PipeModule&#45;&gt;TextCapitalizePipe </title>
<path fill="none" stroke="#000000" stroke-dasharray="5,2" d="M196,-187.1061C196,-187.1061 196,-205.991 196,-205.991"/>
<polygon fill="#000000" stroke="#000000" points="192.5001,-205.9909 196,-215.991 199.5001,-205.991 192.5001,-205.9909"/>
</g>
<!-- WwwPipe  -->
<g id="node9" class="node">
<title>WwwPipe </title>
<polygon fill="#fb8072" stroke="#000000" points="109.8158,-252 32.1842,-252 32.1842,-216 109.8158,-216 109.8158,-252"/>
<text text-anchor="middle" x="71" y="-229.8" font-family="Times,serif" font-size="14.00" fill="#000000">WwwPipe </text>
</g>
<!-- PipeModule&#45;&gt;WwwPipe  -->
<g id="edge8" class="edge">
<title>PipeModule&#45;&gt;WwwPipe </title>
<path fill="none" stroke="#000000" stroke-dasharray="5,2" d="M153.6153,-175C114.7497,-175 63.1974,-175 63.1974,-175 63.1974,-175 63.1974,-205.9775 63.1974,-205.9775"/>
<polygon fill="#000000" stroke="#000000" points="59.6975,-205.9774 63.1974,-215.9775 66.6975,-205.9775 59.6975,-205.9774"/>
</g>
</g>
</svg>
