<?xml version="1.0" encoding="UTF-8" standalone="no"?>
<!DOCTYPE svg PUBLIC "-//W3C//DTD SVG 1.1//EN"
 "http://www.w3.org/Graphics/SVG/1.1/DTD/svg11.dtd">
<!-- Generated by graphviz version 2.40.1 (20161225.0304)
 -->
<!-- Title: dependencies Pages: 1 -->
<svg width="1205pt" height="211pt"
 viewBox="0.00 0.00 1205.00 211.00" xmlns="http://www.w3.org/2000/svg" xmlns:xlink="http://www.w3.org/1999/xlink">
<g id="graph0" class="graph" transform="scale(1 1) rotate(0) translate(4 207)">
<title>dependencies</title>
<polygon fill="#ffffff" stroke="transparent" points="-4,4 -4,-207 1201,-207 1201,4 -4,4"/>
<text text-anchor="start" x="577.5091" y="-42.4" font-family="sans-serif" font-weight="bold" font-size="14.00" fill="#000000">Legend</text>
<polygon fill="#ffffb3" stroke="transparent" points="364.5,-10 364.5,-30 384.5,-30 384.5,-10 364.5,-10"/>
<text text-anchor="start" x="388.129" y="-15.4" font-family="sans-serif" font-size="14.00" fill="#000000"> &#160;Declarations</text>
<polygon fill="#8dd3c7" stroke="transparent" points="477.5,-10 477.5,-30 497.5,-30 497.5,-10 477.5,-10"/>
<text text-anchor="start" x="501.2251" y="-15.4" font-family="sans-serif" font-size="14.00" fill="#000000"> &#160;Module</text>
<polygon fill="#80b1d3" stroke="transparent" points="563.5,-10 563.5,-30 583.5,-30 583.5,-10 563.5,-10"/>
<text text-anchor="start" x="587.2812" y="-15.4" font-family="sans-serif" font-size="14.00" fill="#000000"> &#160;Bootstrap</text>
<polygon fill="#fdb462" stroke="transparent" points="660.5,-10 660.5,-30 680.5,-30 680.5,-10 660.5,-10"/>
<text text-anchor="start" x="684.1732" y="-15.4" font-family="sans-serif" font-size="14.00" fill="#000000"> &#160;Providers</text>
<polygon fill="#fb8072" stroke="transparent" points="756.5,-10 756.5,-30 776.5,-30 776.5,-10 756.5,-10"/>
<text text-anchor="start" x="780.2258" y="-15.4" font-family="sans-serif" font-size="14.00" fill="#000000"> &#160;Exports</text>
<g id="clust1" class="cluster">
<title>cluster_PageModule</title>
<polygon fill="none" stroke="#000000" stroke-dasharray="1,5" points="8,-70 8,-195 1189,-195 1189,-70 8,-70"/>
</g>
<g id="clust2" class="cluster">
<title>cluster_PageModule_declarations</title>
<polygon fill="none" stroke="#000000" points="457,-78 457,-130 1181,-130 1181,-78 457,-78"/>
</g>
<g id="clust8" class="cluster">
<title>cluster_PageModule_imports</title>
<polygon fill="none" stroke="#000000" points="188,-78 188,-130 449,-130 449,-78 188,-78"/>
</g>
<g id="clust11" class="cluster">
<title>cluster_PageModule_providers</title>
<polygon fill="none" stroke="#000000" points="16,-78 16,-130 180,-130 180,-78 16,-78"/>
</g>
<!-- AboutComponent -->
<g id="node1" class="node">
<title>AboutComponent</title>
<polygon fill="#ffffb3" stroke="#000000" points="1173.3301,-122 1056.6699,-122 1056.6699,-86 1173.3301,-86 1173.3301,-122"/>
<text text-anchor="middle" x="1115" y="-99.8" font-family="Times,serif" font-size="14.00" fill="#000000">AboutComponent</text>
</g>
<!-- PageModule -->
<g id="node6" class="node">
<title>PageModule</title>
<polygon fill="#8dd3c7" stroke="#000000" points="661.2619,-187 658.2619,-191 637.2619,-191 634.2619,-187 574.7381,-187 574.7381,-151 661.2619,-151 661.2619,-187"/>
<text text-anchor="middle" x="618" y="-164.8" font-family="Times,serif" font-size="14.00" fill="#000000">PageModule</text>
</g>
<!-- AboutComponent&#45;&gt;PageModule -->
<g id="edge1" class="edge">
<title>AboutComponent&#45;&gt;PageModule</title>
<path fill="none" stroke="#000000" d="M1115,-122.2921C1115,-144.2057 1115,-178 1115,-178 1115,-178 671.6698,-178 671.6698,-178"/>
<polygon fill="#000000" stroke="#000000" points="671.6699,-174.5001 661.6698,-178 671.6698,-181.5001 671.6699,-174.5001"/>
</g>
<!-- ContactComponent -->
<g id="node2" class="node">
<title>ContactComponent</title>
<polygon fill="#ffffb3" stroke="#000000" points="1038.3795,-122 913.6205,-122 913.6205,-86 1038.3795,-86 1038.3795,-122"/>
<text text-anchor="middle" x="976" y="-99.8" font-family="Times,serif" font-size="14.00" fill="#000000">ContactComponent</text>
</g>
<!-- ContactComponent&#45;&gt;PageModule -->
<g id="edge2" class="edge">
<title>ContactComponent&#45;&gt;PageModule</title>
<path fill="none" stroke="#000000" d="M976,-122.1061C976,-141.3391 976,-169 976,-169 976,-169 671.5399,-169 671.5399,-169"/>
<polygon fill="#000000" stroke="#000000" points="671.54,-165.5001 661.5399,-169 671.5399,-172.5001 671.54,-165.5001"/>
</g>
<!-- HomeComponent -->
<g id="node3" class="node">
<title>HomeComponent</title>
<polygon fill="#ffffb3" stroke="#000000" points="895.5451,-122 780.4549,-122 780.4549,-86 895.5451,-86 895.5451,-122"/>
<text text-anchor="middle" x="838" y="-99.8" font-family="Times,serif" font-size="14.00" fill="#000000">HomeComponent</text>
</g>
<!-- HomeComponent&#45;&gt;PageModule -->
<g id="edge3" class="edge">
<title>HomeComponent&#45;&gt;PageModule</title>
<path fill="none" stroke="#000000" d="M838,-122.027C838,-138.3976 838,-160 838,-160 838,-160 671.4649,-160 671.4649,-160"/>
<polygon fill="#000000" stroke="#000000" points="671.465,-156.5001 661.4649,-160 671.4649,-163.5001 671.465,-156.5001"/>
</g>
<!-- PortfolioComponent -->
<g id="node4" class="node">
<title>PortfolioComponent</title>
<polygon fill="#ffffb3" stroke="#000000" points="762.608,-122 631.392,-122 631.392,-86 762.608,-86 762.608,-122"/>
<text text-anchor="middle" x="697" y="-99.8" font-family="Times,serif" font-size="14.00" fill="#000000">PortfolioComponent</text>
</g>
<!-- PortfolioComponent&#45;&gt;PageModule -->
<g id="edge4" class="edge">
<title>PortfolioComponent&#45;&gt;PageModule</title>
<path fill="none" stroke="#000000" d="M646.4134,-122.1061C646.4134,-122.1061 646.4134,-140.991 646.4134,-140.991"/>
<polygon fill="#000000" stroke="#000000" points="642.9135,-140.9909 646.4134,-150.991 649.9135,-140.991 642.9135,-140.9909"/>
</g>
<!-- TechnologyComponent -->
<g id="node5" class="node">
<title>TechnologyComponent</title>
<polygon fill="#ffffb3" stroke="#000000" points="613.2049,-122 464.7951,-122 464.7951,-86 613.2049,-86 613.2049,-122"/>
<text text-anchor="middle" x="539" y="-99.8" font-family="Times,serif" font-size="14.00" fill="#000000">TechnologyComponent</text>
</g>
<!-- TechnologyComponent&#45;&gt;PageModule -->
<g id="edge5" class="edge">
<title>TechnologyComponent&#45;&gt;PageModule</title>
<path fill="none" stroke="#000000" d="M593.8608,-122.1061C593.8608,-122.1061 593.8608,-140.991 593.8608,-140.991"/>
<polygon fill="#000000" stroke="#000000" points="590.3609,-140.9909 593.8608,-150.991 597.3609,-140.991 590.3609,-140.9909"/>
</g>
<!-- AppRoutingModule -->
<g id="node7" class="node">
<title>AppRoutingModule</title>
<polygon fill="#8dd3c7" stroke="#000000" points="441.2744,-122 438.2744,-126 417.2744,-126 414.2744,-122 312.7256,-122 312.7256,-86 441.2744,-86 441.2744,-122"/>
<text text-anchor="middle" x="377" y="-99.8" font-family="Times,serif" font-size="14.00" fill="#000000">AppRoutingModule</text>
</g>
<!-- AppRoutingModule&#45;&gt;PageModule -->
<g id="edge6" class="edge">
<title>AppRoutingModule&#45;&gt;PageModule</title>
<path fill="none" stroke="#000000" d="M377,-122.027C377,-138.3976 377,-160 377,-160 377,-160 564.6357,-160 564.6357,-160"/>
<polygon fill="#000000" stroke="#000000" points="564.6357,-163.5001 574.6357,-160 564.6357,-156.5001 564.6357,-163.5001"/>
</g>
<!-- SharedModule -->
<g id="node8" class="node">
<title>SharedModule</title>
<polygon fill="#8dd3c7" stroke="#000000" points="294.4231,-122 291.4231,-126 270.4231,-126 267.4231,-122 195.5769,-122 195.5769,-86 294.4231,-86 294.4231,-122"/>
<text text-anchor="middle" x="245" y="-99.8" font-family="Times,serif" font-size="14.00" fill="#000000">SharedModule</text>
</g>
<!-- SharedModule&#45;&gt;PageModule -->
<g id="edge7" class="edge">
<title>SharedModule&#45;&gt;PageModule</title>
<path fill="none" stroke="#000000" d="M245,-122.1061C245,-141.3391 245,-169 245,-169 245,-169 564.4822,-169 564.4822,-169"/>
<polygon fill="#000000" stroke="#000000" points="564.4822,-172.5001 574.4822,-169 564.4821,-165.5001 564.4822,-172.5001"/>
</g>
<!-- PortfolioService -->
<g id="node9" class="node">
<title>PortfolioService</title>
<ellipse fill="#fdb462" stroke="#000000" cx="98" cy="-104" rx="74.1528" ry="18"/>
<text text-anchor="middle" x="98" y="-99.8" font-family="Times,serif" font-size="14.00" fill="#000000">PortfolioService</text>
</g>
<!-- PortfolioService&#45;&gt;PageModule -->
<g id="edge8" class="edge">
<title>PortfolioService&#45;&gt;PageModule</title>
<path fill="none" stroke="#000000" d="M98,-122.2921C98,-144.2057 98,-178 98,-178 98,-178 564.5595,-178 564.5595,-178"/>
<polygon fill="#000000" stroke="#000000" points="564.5595,-181.5001 574.5595,-178 564.5595,-174.5001 564.5595,-181.5001"/>
</g>
</g>
</svg>
