<?xml version="1.0" encoding="UTF-8" standalone="no"?>
<!DOCTYPE svg PUBLIC "-//W3C//DTD SVG 1.1//EN"
 "http://www.w3.org/Graphics/SVG/1.1/DTD/svg11.dtd">
<!-- Generated by graphviz version 2.40.1 (20161225.0304)
 -->
<!-- Title: dependencies Pages: 1 -->
<svg width="753pt" height="284pt"
 viewBox="0.00 0.00 753.00 284.00" xmlns="http://www.w3.org/2000/svg" xmlns:xlink="http://www.w3.org/1999/xlink">
<g id="graph0" class="graph" transform="scale(1 1) rotate(0) translate(4 280)">
<title>dependencies</title>
<polygon fill="#ffffff" stroke="transparent" points="-4,4 -4,-280 749,-280 749,4 -4,4"/>
<text text-anchor="start" x="351.5091" y="-42.4" font-family="sans-serif" font-weight="bold" font-size="14.00" fill="#000000">Legend</text>
<polygon fill="#ffffb3" stroke="transparent" points="138.5,-10 138.5,-30 158.5,-30 158.5,-10 138.5,-10"/>
<text text-anchor="start" x="162.129" y="-15.4" font-family="sans-serif" font-size="14.00" fill="#000000"> &#160;Declarations</text>
<polygon fill="#8dd3c7" stroke="transparent" points="251.5,-10 251.5,-30 271.5,-30 271.5,-10 251.5,-10"/>
<text text-anchor="start" x="275.2251" y="-15.4" font-family="sans-serif" font-size="14.00" fill="#000000"> &#160;Module</text>
<polygon fill="#80b1d3" stroke="transparent" points="337.5,-10 337.5,-30 357.5,-30 357.5,-10 337.5,-10"/>
<text text-anchor="start" x="361.2812" y="-15.4" font-family="sans-serif" font-size="14.00" fill="#000000"> &#160;Bootstrap</text>
<polygon fill="#fdb462" stroke="transparent" points="434.5,-10 434.5,-30 454.5,-30 454.5,-10 434.5,-10"/>
<text text-anchor="start" x="458.1732" y="-15.4" font-family="sans-serif" font-size="14.00" fill="#000000"> &#160;Providers</text>
<polygon fill="#fb8072" stroke="transparent" points="530.5,-10 530.5,-30 550.5,-30 550.5,-10 530.5,-10"/>
<text text-anchor="start" x="554.2258" y="-15.4" font-family="sans-serif" font-size="14.00" fill="#000000"> &#160;Exports</text>
<g id="clust1" class="cluster">
<title>cluster_HeaderModule</title>
<polygon fill="none" stroke="#000000" stroke-dasharray="1,5" points="8,-70 8,-268 737,-268 737,-70 8,-70"/>
</g>
<g id="clust2" class="cluster">
<title>cluster_HeaderModule_declarations</title>
<polygon fill="none" stroke="#000000" points="322,-78 322,-130 729,-130 729,-78 322,-78"/>
</g>
<g id="clust6" class="cluster">
<title>cluster_HeaderModule_imports</title>
<polygon fill="none" stroke="#000000" points="16,-78 16,-130 314,-130 314,-78 16,-78"/>
</g>
<g id="clust7" class="cluster">
<title>cluster_HeaderModule_exports</title>
<polygon fill="none" stroke="#000000" points="248,-208 248,-260 534,-260 534,-208 248,-208"/>
</g>
<!-- HeaderComponent -->
<g id="node1" class="node">
<title>HeaderComponent</title>
<polygon fill="#ffffb3" stroke="#000000" points="720.7437,-122 599.2563,-122 599.2563,-86 720.7437,-86 720.7437,-122"/>
<text text-anchor="middle" x="660" y="-99.8" font-family="Times,serif" font-size="14.00" fill="#000000">HeaderComponent</text>
</g>
<!-- HeaderModule -->
<g id="node4" class="node">
<title>HeaderModule</title>
<polygon fill="#8dd3c7" stroke="#000000" points="440.9608,-187 437.9608,-191 416.9608,-191 413.9608,-187 341.0392,-187 341.0392,-151 440.9608,-151 440.9608,-187"/>
<text text-anchor="middle" x="391" y="-164.8" font-family="Times,serif" font-size="14.00" fill="#000000">HeaderModule</text>
</g>
<!-- HeaderComponent&#45;&gt;HeaderModule -->
<g id="edge1" class="edge">
<title>HeaderComponent&#45;&gt;HeaderModule</title>
<path fill="none" stroke="#000000" d="M660,-122.2843C660,-143.3211 660,-175 660,-175 660,-175 450.9664,-175 450.9664,-175"/>
<polygon fill="#000000" stroke="#000000" points="450.9664,-171.5001 440.9664,-175 450.9664,-178.5001 450.9664,-171.5001"/>
</g>
<!-- LogoComponent -->
<g id="node2" class="node">
<title>LogoComponent</title>
<polygon fill="#ffffb3" stroke="#000000" points="581.3851,-122 470.6149,-122 470.6149,-86 581.3851,-86 581.3851,-122"/>
<text text-anchor="middle" x="526" y="-99.8" font-family="Times,serif" font-size="14.00" fill="#000000">LogoComponent</text>
</g>
<!-- LogoComponent&#45;&gt;HeaderModule -->
<g id="edge2" class="edge">
<title>LogoComponent&#45;&gt;HeaderModule</title>
<path fill="none" stroke="#000000" d="M498.0896,-122.0225C498.0896,-139.3734 498.0896,-163 498.0896,-163 498.0896,-163 451.0958,-163 451.0958,-163"/>
<polygon fill="#000000" stroke="#000000" points="451.0958,-159.5001 441.0958,-163 451.0958,-166.5001 451.0958,-159.5001"/>
</g>
<!-- NavbarComponent -->
<g id="node3" class="node">
<title>NavbarComponent</title>
<polygon fill="#ffffb3" stroke="#000000" points="452.0297,-122 329.9703,-122 329.9703,-86 452.0297,-86 452.0297,-122"/>
<text text-anchor="middle" x="391" y="-99.8" font-family="Times,serif" font-size="14.00" fill="#000000">NavbarComponent</text>
</g>
<!-- NavbarComponent&#45;&gt;HeaderModule -->
<g id="edge3" class="edge">
<title>NavbarComponent&#45;&gt;HeaderModule</title>
<path fill="none" stroke="#000000" d="M391,-122.1061C391,-122.1061 391,-140.991 391,-140.991"/>
<polygon fill="#000000" stroke="#000000" points="387.5001,-140.9909 391,-150.991 394.5001,-140.991 387.5001,-140.9909"/>
</g>
<!-- HeaderComponent  -->
<g id="node7" class="node">
<title>HeaderComponent </title>
<polygon fill="#fb8072" stroke="#000000" points="525.7436,-252 400.2564,-252 400.2564,-216 525.7436,-216 525.7436,-252"/>
<text text-anchor="middle" x="463" y="-229.8" font-family="Times,serif" font-size="14.00" fill="#000000">HeaderComponent </text>
</g>
<!-- HeaderModule&#45;&gt;HeaderComponent  -->
<g id="edge6" class="edge">
<title>HeaderModule&#45;&gt;HeaderComponent </title>
<path fill="none" stroke="#000000" stroke-dasharray="5,2" d="M420.6794,-187.1061C420.6794,-187.1061 420.6794,-205.991 420.6794,-205.991"/>
<polygon fill="#000000" stroke="#000000" points="417.1794,-205.9909 420.6794,-215.991 424.1794,-205.991 417.1794,-205.9909"/>
</g>
<!-- NavbarComponent  -->
<g id="node8" class="node">
<title>NavbarComponent </title>
<polygon fill="#fb8072" stroke="#000000" points="382.0288,-252 255.9712,-252 255.9712,-216 382.0288,-216 382.0288,-252"/>
<text text-anchor="middle" x="319" y="-229.8" font-family="Times,serif" font-size="14.00" fill="#000000">NavbarComponent </text>
</g>
<!-- HeaderModule&#45;&gt;NavbarComponent  -->
<g id="edge7" class="edge">
<title>HeaderModule&#45;&gt;NavbarComponent </title>
<path fill="none" stroke="#000000" stroke-dasharray="5,2" d="M361.517,-187.1061C361.517,-187.1061 361.517,-205.991 361.517,-205.991"/>
<polygon fill="#000000" stroke="#000000" points="358.0171,-205.9909 361.517,-215.991 365.0171,-205.991 358.0171,-205.9909"/>
</g>
<!-- AppRoutingModule -->
<g id="node5" class="node">
<title>AppRoutingModule</title>
<polygon fill="#8dd3c7" stroke="#000000" points="306.2744,-122 303.2744,-126 282.2744,-126 279.2744,-122 177.7256,-122 177.7256,-86 306.2744,-86 306.2744,-122"/>
<text text-anchor="middle" x="242" y="-99.8" font-family="Times,serif" font-size="14.00" fill="#000000">AppRoutingModule</text>
</g>
<!-- AppRoutingModule&#45;&gt;HeaderModule -->
<g id="edge4" class="edge">
<title>AppRoutingModule&#45;&gt;HeaderModule</title>
<path fill="none" stroke="#000000" d="M281.1864,-122.0225C281.1864,-139.3734 281.1864,-163 281.1864,-163 281.1864,-163 330.9134,-163 330.9134,-163"/>
<polygon fill="#000000" stroke="#000000" points="330.9135,-166.5001 340.9134,-163 330.9134,-159.5001 330.9135,-166.5001"/>
</g>
<!-- ColoredLinesModule -->
<g id="node6" class="node">
<title>ColoredLinesModule</title>
<polygon fill="#8dd3c7" stroke="#000000" points="159.7548,-122 156.7548,-126 135.7548,-126 132.7548,-122 24.2452,-122 24.2452,-86 159.7548,-86 159.7548,-122"/>
<text text-anchor="middle" x="92" y="-99.8" font-family="Times,serif" font-size="14.00" fill="#000000">ColoredLinesModule</text>
</g>
<!-- ColoredLinesModule&#45;&gt;HeaderModule -->
<g id="edge5" class="edge">
<title>ColoredLinesModule&#45;&gt;HeaderModule</title>
<path fill="none" stroke="#000000" d="M92,-122.2843C92,-143.3211 92,-175 92,-175 92,-175 330.9541,-175 330.9541,-175"/>
<polygon fill="#000000" stroke="#000000" points="330.9542,-178.5001 340.9541,-175 330.9541,-171.5001 330.9542,-178.5001"/>
</g>
</g>
</svg>
