<?xml version="1.0" encoding="UTF-8" standalone="no"?>
<!DOCTYPE svg PUBLIC "-//W3C//DTD SVG 1.1//EN"
 "http://www.w3.org/Graphics/SVG/1.1/DTD/svg11.dtd">
<!-- Generated by graphviz version 2.40.1 (20161225.0304)
 -->
<!-- Title: dependencies Pages: 1 -->
<svg width="677pt" height="284pt"
 viewBox="0.00 0.00 677.00 284.00" xmlns="http://www.w3.org/2000/svg" xmlns:xlink="http://www.w3.org/1999/xlink">
<g id="graph0" class="graph" transform="scale(1 1) rotate(0) translate(4 280)">
<title>dependencies</title>
<polygon fill="#ffffff" stroke="transparent" points="-4,4 -4,-280 673,-280 673,4 -4,4"/>
<text text-anchor="start" x="313.5091" y="-42.4" font-family="sans-serif" font-weight="bold" font-size="14.00" fill="#000000">Legend</text>
<polygon fill="#ffffb3" stroke="transparent" points="100.5,-10 100.5,-30 120.5,-30 120.5,-10 100.5,-10"/>
<text text-anchor="start" x="124.129" y="-15.4" font-family="sans-serif" font-size="14.00" fill="#000000"> &#160;Declarations</text>
<polygon fill="#8dd3c7" stroke="transparent" points="213.5,-10 213.5,-30 233.5,-30 233.5,-10 213.5,-10"/>
<text text-anchor="start" x="237.2251" y="-15.4" font-family="sans-serif" font-size="14.00" fill="#000000"> &#160;Module</text>
<polygon fill="#80b1d3" stroke="transparent" points="299.5,-10 299.5,-30 319.5,-30 319.5,-10 299.5,-10"/>
<text text-anchor="start" x="323.2812" y="-15.4" font-family="sans-serif" font-size="14.00" fill="#000000"> &#160;Bootstrap</text>
<polygon fill="#fdb462" stroke="transparent" points="396.5,-10 396.5,-30 416.5,-30 416.5,-10 396.5,-10"/>
<text text-anchor="start" x="420.1732" y="-15.4" font-family="sans-serif" font-size="14.00" fill="#000000"> &#160;Providers</text>
<polygon fill="#fb8072" stroke="transparent" points="492.5,-10 492.5,-30 512.5,-30 512.5,-10 492.5,-10"/>
<text text-anchor="start" x="516.2258" y="-15.4" font-family="sans-serif" font-size="14.00" fill="#000000"> &#160;Exports</text>
<g id="clust1" class="cluster">
<title>cluster_AppModule</title>
<polygon fill="none" stroke="#000000" stroke-dasharray="1,5" points="8,-70 8,-268 661,-268 661,-70 8,-70"/>
</g>
<g id="clust2" class="cluster">
<title>cluster_AppModule_declarations</title>
<polygon fill="none" stroke="#000000" points="531,-78 531,-130 653,-130 653,-78 531,-78"/>
</g>
<g id="clust4" class="cluster">
<title>cluster_AppModule_imports</title>
<polygon fill="none" stroke="#000000" points="16,-78 16,-130 523,-130 523,-78 16,-78"/>
</g>
<g id="clust6" class="cluster">
<title>cluster_AppModule_bootstrap</title>
<polygon fill="none" stroke="#000000" points="245,-208 245,-260 369,-260 369,-208 245,-208"/>
</g>
<!-- AppComponent -->
<g id="node1" class="node">
<title>AppComponent</title>
<polygon fill="#ffffb3" stroke="#000000" points="644.9399,-122 539.0601,-122 539.0601,-86 644.9399,-86 644.9399,-122"/>
<text text-anchor="middle" x="592" y="-99.8" font-family="Times,serif" font-size="14.00" fill="#000000">AppComponent</text>
</g>
<!-- AppModule -->
<g id="node2" class="node">
<title>AppModule</title>
<polygon fill="#8dd3c7" stroke="#000000" points="348.6571,-187 345.6571,-191 324.6571,-191 321.6571,-187 265.3429,-187 265.3429,-151 348.6571,-151 348.6571,-187"/>
<text text-anchor="middle" x="307" y="-164.8" font-family="Times,serif" font-size="14.00" fill="#000000">AppModule</text>
</g>
<!-- AppComponent&#45;&gt;AppModule -->
<g id="edge1" class="edge">
<title>AppComponent&#45;&gt;AppModule</title>
<path fill="none" stroke="#000000" d="M592,-122.2843C592,-143.3211 592,-175 592,-175 592,-175 358.7467,-175 358.7467,-175"/>
<polygon fill="#000000" stroke="#000000" points="358.7467,-171.5001 348.7467,-175 358.7466,-178.5001 358.7467,-171.5001"/>
</g>
<!-- AppComponent  -->
<g id="node7" class="node">
<title>AppComponent </title>
<polygon fill="#80b1d3" stroke="#000000" points="361.439,-252 252.561,-252 252.561,-216 361.439,-216 361.439,-252"/>
<text text-anchor="middle" x="307" y="-229.8" font-family="Times,serif" font-size="14.00" fill="#000000">AppComponent </text>
</g>
<!-- AppModule&#45;&gt;AppComponent  -->
<g id="edge6" class="edge">
<title>AppModule&#45;&gt;AppComponent </title>
<path fill="none" stroke="#000000" stroke-dasharray="1,5" d="M307,-187.1061C307,-187.1061 307,-205.991 307,-205.991"/>
<polygon fill="#000000" stroke="#000000" points="303.5001,-205.9909 307,-215.991 310.5001,-205.991 303.5001,-205.9909"/>
</g>
<!-- AppRoutingModule -->
<g id="node3" class="node">
<title>AppRoutingModule</title>
<polygon fill="#8dd3c7" stroke="#000000" points="515.2744,-122 512.2744,-126 491.2744,-126 488.2744,-122 386.7256,-122 386.7256,-86 515.2744,-86 515.2744,-122"/>
<text text-anchor="middle" x="451" y="-99.8" font-family="Times,serif" font-size="14.00" fill="#000000">AppRoutingModule</text>
</g>
<!-- AppRoutingModule&#45;&gt;AppModule -->
<g id="edge2" class="edge">
<title>AppRoutingModule&#45;&gt;AppModule</title>
<path fill="none" stroke="#000000" d="M451,-122.0225C451,-139.3734 451,-163 451,-163 451,-163 359.0379,-163 359.0379,-163"/>
<polygon fill="#000000" stroke="#000000" points="359.0379,-159.5001 349.0379,-163 359.0378,-166.5001 359.0379,-159.5001"/>
</g>
<!-- BlackLinesModule -->
<g id="node4" class="node">
<title>BlackLinesModule</title>
<polygon fill="#8dd3c7" stroke="#000000" points="368.809,-122 365.809,-126 344.809,-126 341.809,-122 245.191,-122 245.191,-86 368.809,-86 368.809,-122"/>
<text text-anchor="middle" x="307" y="-99.8" font-family="Times,serif" font-size="14.00" fill="#000000">BlackLinesModule</text>
</g>
<!-- BlackLinesModule&#45;&gt;AppModule -->
<g id="edge3" class="edge">
<title>BlackLinesModule&#45;&gt;AppModule</title>
<path fill="none" stroke="#000000" d="M307,-122.1061C307,-122.1061 307,-140.991 307,-140.991"/>
<polygon fill="#000000" stroke="#000000" points="303.5001,-140.9909 307,-150.991 310.5001,-140.991 303.5001,-140.9909"/>
</g>
<!-- PageModule -->
<g id="node5" class="node">
<title>PageModule</title>
<polygon fill="#8dd3c7" stroke="#000000" points="227.2619,-122 224.2619,-126 203.2619,-126 200.2619,-122 140.7381,-122 140.7381,-86 227.2619,-86 227.2619,-122"/>
<text text-anchor="middle" x="184" y="-99.8" font-family="Times,serif" font-size="14.00" fill="#000000">PageModule</text>
</g>
<!-- PageModule&#45;&gt;AppModule -->
<g id="edge4" class="edge">
<title>PageModule&#45;&gt;AppModule</title>
<path fill="none" stroke="#000000" d="M184,-122.0225C184,-139.3734 184,-163 184,-163 184,-163 255.0144,-163 255.0144,-163"/>
<polygon fill="#000000" stroke="#000000" points="255.0144,-166.5001 265.0144,-163 255.0144,-159.5001 255.0144,-166.5001"/>
</g>
<!-- SharedModule -->
<g id="node6" class="node">
<title>SharedModule</title>
<polygon fill="#8dd3c7" stroke="#000000" points="122.4231,-122 119.4231,-126 98.4231,-126 95.4231,-122 23.5769,-122 23.5769,-86 122.4231,-86 122.4231,-122"/>
<text text-anchor="middle" x="73" y="-99.8" font-family="Times,serif" font-size="14.00" fill="#000000">SharedModule</text>
</g>
<!-- SharedModule&#45;&gt;AppModule -->
<g id="edge5" class="edge">
<title>SharedModule&#45;&gt;AppModule</title>
<path fill="none" stroke="#000000" d="M73,-122.2843C73,-143.3211 73,-175 73,-175 73,-175 255.1655,-175 255.1655,-175"/>
<polygon fill="#000000" stroke="#000000" points="255.1655,-178.5001 265.1655,-175 255.1655,-171.5001 255.1655,-178.5001"/>
</g>
</g>
</svg>
